<?xml version="1.0" encoding="utf-8"?>
<!-- Svg Vector Icons : http://www.onlinewebfonts.com/icon -->
<!DOCTYPE svg PUBLIC "-//W3C//DTD SVG 1.1//EN" "http://www.w3.org/Graphics/SVG/1.1/DTD/svg11.dtd">
<svg version="1.1" xmlns="http://www.w3.org/2000/svg" xmlns:xlink="http://www.w3.org/1999/xlink" x="0px" y="0px" viewBox="0 0 1000 1000" enable-background="new 0 0 1000 1000" xml:space="preserve">
<metadata> Svg Vector Icons : http://www.onlinewebfonts.com/icon </metadata>
<g><g transform="translate(0.000000,512.000000) scale(0.100000,-0.100000)"><path d="M3053.4,5001.3c-365.6-53.6-629.7-225.9-769.4-503.4c-90-179.9-120.6-319.6-130.2-606.8c-11.5-290.9,11.5-421.1,111-614.4c67-135.9,250.7-336.9,386.6-423l99.5-63.2l-1253.7-9.6c-968.5-7.7-1263.3-15.3-1295.8-34.4C98.1,2689.1,100,2712.1,100,1345.4C100-57.6,96.2-9.7,224.4-63.3c49.8-21,164.6-26.8,478.5-26.8h411.5v-2249c0-1900.7,3.8-2260.5,26.8-2316c57.4-134-260.3-124.4,3858.7-124.4c4119.1,0,3801.3-9.6,3858.7,124.4c23,55.5,26.8,415.3,26.8,2316v2249h411.5c313.9,0,428.8,5.7,478.5,26.8C9903.8-9.7,9900-57.6,9900,1345.4c0,1366.6,1.9,1343.7-101.4,1401.1c-32.5,19.1-327.3,26.8-1295.8,34.4l-1253.7,9.6l99.5,63.2c135.9,86.1,319.6,287.1,386.6,423c99.5,193.3,122.5,323.5,111,614.4c-15.3,394.3-101.4,637.4-292.9,828.8c-202.9,204.8-447.9,289-849.8,289c-222,1.9-275.6-5.7-382.8-42.1C5870.9,4806,5423,4340.9,5118.7,3715c-59.3-122.5-112.9-223.9-118.7-223.9c-5.7,0-47.9,82.3-95.7,185.7c-245,530.2-677.6,1022.1-1066.1,1217.3C3608.5,5010.8,3352,5045.3,3053.4,5001.3z M3650.6,4534.2c335-166.5,671.8-562.7,909.2-1071.9c88-185.7,181.8-463.2,201-591.4l13.4-90h-111c-474.7,0-1150.3,116.8-1473.8,250.7c-470.9,197.1-660.4,463.2-633.6,888.1c28.7,432.6,197.1,625.9,587.6,681.4C3340.5,4628,3501.3,4607,3650.6,4534.2z M7046.1,4557.2c170.3-51.7,285.2-170.3,348.3-352.2c36.4-109.1,44-170.3,45.9-361.8c0-214.4-3.8-237.3-55.5-340.7c-202.9-417.3-847.9-658.4-1906.4-713.9l-254.6-13.4l15.3,93.8c49.8,342.6,306.3,869,595.3,1230.7c206.7,256.5,480.4,457.5,681.4,499.6C6632.7,4622.3,6900.7,4601.2,7046.1,4557.2z M3985.5,1345.4V331H2243.7H502v1014.4v1014.5h1741.8h1741.8V1345.4z M5612.5,1345.4V331H5000h-612.5v1014.4v1014.5H5000h612.5V1345.4z M9498,1345.4V331H7756.2H6014.5v1014.4v1014.5h1741.8H9498V1345.4z M3981.7-2228.1L3976-4368l-1219.3-5.7l-1221.2-3.8v2143.7V-90.1h1225h1225L3981.7-2228.1z M5612.5-2233.9v-2143.7H5000h-612.5v2143.7V-90.1H5000h612.5V-2233.9z M8464.4-2233.9v-2143.7l-1219.3,3.8L6024-4368l-5.7,2139.9l-3.8,2138h1225h1225V-2233.9z"/></g></g>
</svg>